<svg width="85" height="84" viewBox="0 0 85 84" fill="none" xmlns="http://www.w3.org/2000/svg">
<path d="M46.0499 3.1375C45.5854 2.1965 44.8668 1.40424 43.9755 0.85027C43.0841 0.296302 42.0556 0.00272369 41.0062 0.00272369C39.9568 0.00272369 38.9282 0.296302 38.0369 0.85027C37.1456 1.40424 36.427 2.1965 35.9624 3.1375L26.4562 22.4L5.19995 25.4937C4.1608 25.6436 3.18434 26.0813 2.38105 26.7574C1.57775 27.4334 0.979687 28.3207 0.654517 29.319C0.329347 30.3173 0.290052 31.3866 0.541079 32.4061C0.792105 33.4255 1.32343 34.3543 2.07495 35.0875L17.4624 50.0812L13.8312 71.25C13.6533 72.2847 13.7686 73.3486 14.1639 74.3212C14.5593 75.2938 15.2189 76.1364 16.0683 76.7536C16.9176 77.3707 17.9227 77.7379 18.9699 77.8135C20.0171 77.889 21.0645 77.67 21.9937 77.1812L27.6812 74.1875C26.5545 72.4309 25.5901 70.5753 24.7999 68.6438L20.2062 71.0625L22.3624 58.4625C22.0665 54.7733 22.3577 51.0605 23.2249 47.4625C22.9375 46.8558 22.5438 46.3055 22.0624 45.8375L7.34995 31.4875L27.6812 28.5312C28.5828 28.3997 29.4389 28.0511 30.176 27.5155C30.913 26.9798 31.5089 26.2732 31.9124 25.4562L41.0062 7.0375L48.4999 22.2188C50.634 21.7012 52.8127 21.3894 55.0062 21.2875L46.0499 3.1375ZM84.7499 55.625C84.7499 59.3184 84.0225 62.9757 82.6091 66.388C81.1956 69.8002 79.124 72.9007 76.5123 75.5124C73.9007 78.124 70.8002 80.1957 67.3879 81.6091C63.9756 83.0225 60.3184 83.75 56.6249 83.75C52.9315 83.75 49.2743 83.0225 45.862 81.6091C42.4497 80.1957 39.3492 78.124 36.7376 75.5124C34.1259 72.9007 32.0542 69.8002 30.6408 66.388C29.2274 62.9757 28.4999 59.3184 28.4999 55.625C28.4999 48.1658 31.4631 41.0121 36.7376 35.7376C42.012 30.4632 49.1657 27.5 56.6249 27.5C64.0842 27.5 71.2379 30.4632 76.5123 35.7376C81.7868 41.0121 84.7499 48.1658 84.7499 55.625ZM71.3374 44.0375C71.0472 43.7465 70.7023 43.5156 70.3227 43.358C69.943 43.2005 69.536 43.1194 69.1249 43.1194C68.7139 43.1194 68.3069 43.2005 67.9272 43.358C67.5476 43.5156 67.2027 43.7465 66.9124 44.0375L50.3749 60.5812L46.3374 56.5375C46.0469 56.2469 45.702 56.0165 45.3223 55.8592C44.9427 55.702 44.5358 55.6211 44.1249 55.6211C43.714 55.6211 43.3072 55.702 42.9275 55.8592C42.5479 56.0165 42.203 56.2469 41.9124 56.5375C41.6219 56.828 41.3914 57.173 41.2342 57.5526C41.0769 57.9322 40.996 58.3391 40.996 58.75C40.996 59.1609 41.0769 59.5678 41.2342 59.9474C41.3914 60.327 41.6219 60.672 41.9124 60.9625L48.1624 67.2125C48.4527 67.5035 48.7976 67.7344 49.1772 67.8919C49.5569 68.0495 49.9639 68.1306 50.3749 68.1306C50.786 68.1306 51.193 68.0495 51.5727 67.8919C51.9523 67.7344 52.2972 67.5035 52.5874 67.2125L71.3374 48.4625C71.6285 48.1722 71.8594 47.8274 72.0169 47.4477C72.1744 47.068 72.2555 46.661 72.2555 46.25C72.2555 45.839 72.1744 45.4319 72.0169 45.0523C71.8594 44.6726 71.6285 44.3278 71.3374 44.0375Z" fill="#059669"/>
</svg>
